# xmcd
#
# Track frame offsets:
#	150
#	12006
#	27330
#	43670
#	69064
#	88253
#	106940
#	123039
#	137366
#	151200
#	167917
#
# Disc length: 2655 seconds
#
# Revision: 0
# Processed by: cddbd v1.5.2PL0 Copyright (c) Steve Scherf et al.
# Submitted via: dBpowerAMP V4.0
#
DISCID=7b0a5d0b
DTITLE=Various Artist - Country PM Presents - All the best from Nashville
DYEAR=2001
DGENRE=Country
TTITLE0=Alan Jackson - www.memory
TTITLE1=Brooks and Dunn - Ain't nothing 'bout you
TTITLE2=Diamons Rio - One more day
TTITLE3=Sara Evans - Born to fly
TTITLE4=Lonestar - I'm already there
TTITLE5=Brad Paisley - Two people fell in love
TTITLE6=3 of Hearts - Love is enough
TTITLE7=Lorrie Morgan and Sammy Kershaw - He drinks tequila
TTITLE8=Tracy Byrd - Ten round with Jose Cuervo (recall mix)
TTITLE9=Pam Tillis - Thunder and roses
TTITLE10=Alabama - When it all goes south
EXTD=74321 894432\nwww.click2music.nl/country
EXTT0=
EXTT1=
EXTT2=
EXTT3=
EXTT4=
EXTT5=
EXTT6=
EXTT7=
EXTT8=
EXTT9=
EXTT10=
PLAYORDER=
